<svg width="97" height="172" viewBox="0 0 97 172" fill="none" xmlns="http://www.w3.org/2000/svg">
<mask id="mask0_67_172" style="mask-type:luminance" maskUnits="userSpaceOnUse" x="0" y="0" width="97" height="172">
<path d="M-0.000366211 0H96.1543V171.089H-0.000366211V0Z" fill="white"/>
</mask>
<g mask="url(#mask0_67_172)">
<path d="M0.432518 163.251C1.89199 160.61 9.10346 169.524 20.8653 167.213C32.6272 164.902 36.6621 157.309 42.9293 149.798C54.8629 135.603 77.0128 142.783 86.7141 123.141C96.4154 109.275 86.7141 100.444 87.5726 89.5501C88.517 74.0342 82.5073 49.2747 75.6391 36.5646C60.0997 10.5671 57.696 16.0968 40.8688 12.1352C33.3139 10.1545 14.8557 6.60558 7.30052 8.00862C6.27039 6.85317 14.1688 5.61521 14.2547 5.28507C11.9365 2.89165 -1.97147 6.44052 0.603989 0.415693C7.38639 -1.06988 10.9064 1.65366 19.32 2.97419C27.7336 4.2947 32.5413 7.67851 39.4952 8.75142C46.3635 11.8876 58.3829 10.1545 63.8773 15.519C83.1941 30.6223 92.5521 61.9844 91.7794 72.5486C91.0067 83.1128 94.2691 86.3314 93.6681 90.9533C93.0672 95.5749 91.1784 94.9974 94.6125 100.94C97.9608 106.799 94.7842 106.964 95.6428 115.053C96.5013 123.141 88.6887 127.68 87.0575 129.248C85.4263 130.816 83.5376 132.384 82.3356 134.447C81.1337 136.511 76.5835 137.419 75.124 139.647C73.6645 141.875 71.8616 142.701 66.1955 142.783C60.5291 142.866 52.8883 146.827 50.9995 148.23C49.1107 149.633 40.7829 163.169 30.6525 168.368C23.4408 170.762 14.0829 172.412 7.72987 169.854C2.40693 166.635 -1.02695 165.892 0.432518 163.251Z" fill="#F2F2F2"/>
<path d="M6.35914 131.225C6.35914 131.225 4.55621 131.638 2.75328 130.977C0.0919433 129.987 -1.36752 127.594 1.89488 128.502C5.07141 129.409 6.87407 130.07 6.35914 131.225Z" fill="#F2F2F2"/>
<path d="M29.8724 131.226C29.8724 131.226 22.6606 132.794 14.1614 132.217C5.66195 131.556 17.767 130.484 17.767 130.484L28.842 129.906C28.842 129.823 31.3318 130.236 29.8724 131.226Z" fill="#F2F2F2"/>
<path d="M14.4239 147.386C31.4846 149.259 44.5049 129.342 56.1783 121.086C67.8516 113.426 77.2799 104.149 74.9453 94.7869C72.6106 85.4246 69.827 16.7394 18.1951 21.3355C13.7953 22.1015 -1.46974 23.9739 0.236397 21.1652C13.5257 21.6759 6.79132 13.1647 38.8479 20.8248C67.582 27.7189 75.3044 75.2113 78.4473 101.851C77.5493 119.47 57.4353 118.023 49.0844 131.811C39.5663 143.046 24.5705 150.28 16.3993 150.961C13.9748 150.535 -2.09827 147.046 0.236397 143.641C2.30146 144.322 10.4729 146.96 14.4239 147.386Z" fill="#F2F2F2"/>
<path d="M35.7513 34.3887C31.7686 35.0545 38.7508 36.1217 44.7654 43.8018C44.7654 43.8018 37.4297 33.6152 50.278 52.0091C61.3508 67.8227 51.4764 89.1226 44.1324 99.1806C43.5134 99.985 43.5646 100.227 43.5492 100.568C43.4838 101.088 43.3174 101.544 43.8044 101.358C44.2073 101.189 45.7644 99.4287 46.6185 98.4909C72.6935 70.4222 50.3396 41.5372 35.7513 34.3887Z" fill="#F2F2F2"/>
<path d="M34.602 119.67C35.1172 119.423 35.5465 119.01 35.9756 118.597C37.8644 117.029 40.4401 116.616 42.8439 115.791C45.6769 114.801 48.3385 113.068 50.3129 110.757C50.6564 110.344 50.9999 109.931 51.3433 109.436C51.9441 108.693 52.4593 108.033 53.2321 107.455C53.6612 107.125 54.434 106.548 55.0351 106.63C55.8076 106.712 55.4641 107.455 55.2924 108.116C55.0351 109.106 54.2623 109.766 53.4897 110.509C52.8028 111.169 52.1159 111.912 51.3433 112.572C48.2527 115.543 44.4751 118.019 40.0967 118.68C39.4956 118.762 38.8089 118.845 38.2079 119.092C37.1777 119.505 36.4908 120.33 35.7183 121.073C34.9455 121.816 33.8295 122.394 32.7991 121.981C32.4559 121.816 32.0265 121.568 32.0265 121.156" fill="#F2F2F2"/>
<path d="M0.432014 109.851C3.43681 111.997 1.03308 110.429 6.61335 111.502C10.5627 112.492 16.6581 110.429 20.6072 107.375C24.5565 104.322 25.3293 103.249 26.7029 99.7001C28.0765 96.1511 32.9701 93.1801 35.7173 89.7962C40.4392 86.7425 38.808 68.0076 37.7779 66.2746C34.6872 47.7875 19.1477 30.9509 0.432014 34.5824V32.7666C28.6773 25.9164 44.3027 60.2498 41.8128 81.4604C39.2373 102.754 29.4501 98.0493 26.7888 104.404C22.496 112.327 8.33041 116.949 0.432014 111.832V109.851Z" fill="#F2F2F2"/>
<path d="M0.425957 50.6745C0.769423 50.5921 1.62782 50.4269 3.86009 50.757C6.69316 51.0871 9.69796 54.471 9.69796 54.471C9.69796 54.471 10.6425 55.6265 10.6425 57.1946C10.6425 58.7627 12.6169 62.5592 12.531 63.2194C12.4452 63.8796 13.3038 67.2635 10.299 68.5015C7.29422 69.8219 4.63263 69.3266 3.08729 73.1233C2.05716 75.7642 1.02702 75.7642 0.425957 75.5166V50.6745Z" fill="#F2F2F2"/>
<path d="M-0.00122833 95.1577C0.771305 95.4054 3.69051 96.1481 5.06411 93.0943C6.69531 89.628 9.95771 84.181 15.0228 84.0983C20.0881 84.0158 22.9214 80.9621 23.4364 76.2577C23.8657 71.471 23.2646 68.7476 22.9214 66.6842C22.578 64.6208 22.0628 59.9165 19.5732 56.3677C16.9974 52.8189 15.1086 50.5078 12.7049 49.435C10.3868 48.362 6.86704 47.1242 6.35184 46.6289C5.83664 46.2163 0.170504 46.2163 0.170504 46.2163L-0.00122833 45.3085V44.3181C0.857172 44.1529 4.80651 43.4927 10.1294 46.2163C16.139 49.2698 19.7449 51.6634 22.4921 57.8533C25.2393 64.0433 25.3252 72.4613 24.9817 73.5344C24.6382 74.6072 26.0121 80.467 20.8609 83.6857C15.7097 86.8219 10.5585 84.7588 7.63957 91.6914C5.0641 97.8811 0.943037 97.1384 -0.00122833 96.8908V95.1577Z" fill="#F2F2F2"/>
</g>
</svg>
