<svg width="86" height="32" viewBox="0 0 86 32" fill="none" xmlns="http://www.w3.org/2000/svg">
<g clip-path="url(#clip0_54_709)">
<path d="M13.6021 31.9947C13.7082 31.5825 13.8368 31.1764 13.9872 30.7782C14.2446 29.9146 14.2766 29.7863 14.4691 28.9227C14.7883 27.419 14.7585 27.5451 14.7883 26.2354C14.7883 25.1757 14.7883 25.0835 14.7244 24.7635C14.5638 23.8034 14.1457 22.8762 13.5042 22.2044C12.7595 21.4043 11.9935 21.0525 10.8382 20.9879C10.2594 20.9561 9.48814 20.8279 9.10302 20.67C8.77513 20.5604 8.46238 20.4102 8.17215 20.2228C7.59341 19.871 6.91892 19.0709 6.78913 18.6863L6.75722 18.6227L6.82105 18.6545L7.24233 19.0741C7.46681 19.2659 7.69235 19.4577 7.78809 19.5213C8.26594 19.7738 8.77288 19.9673 9.29771 20.0978C9.49822 20.1417 9.70306 20.163 9.90836 20.1613C10.2854 20.1662 10.6621 20.1343 11.0329 20.066C11.4499 20.0342 11.8361 19.9695 11.868 19.9695C12.0925 19.9695 13.0563 20.5778 13.6021 21.0292C14.5943 21.8736 15.2543 23.0408 15.4649 24.3237C15.5371 24.9504 15.5588 25.5819 15.5298 26.2121C15.433 27.2357 15.0798 28.5794 14.5978 29.7948C14.1808 30.8746 13.6382 32.0901 13.6021 31.9947ZM18.8703 31.6418C18.5171 30.8428 17.9703 29.531 17.8064 29.0191C17.3575 27.6755 17.1681 26.7472 17.1681 25.7236C17.1351 24.7953 17.2 24.2199 17.4245 23.5163C17.7573 22.487 18.3821 21.5758 19.2235 20.8925C19.7054 20.5078 20.6363 19.9642 20.8288 19.9642C20.8618 19.9642 21.2469 20.0289 21.6321 20.0607C22.0136 20.1292 22.4008 20.1612 22.7885 20.156C23.3576 20.1322 23.9155 19.9908 24.4268 19.7406C24.8768 19.5488 25.0651 19.4227 25.5194 18.9724C25.712 18.7806 25.9045 18.6206 25.9045 18.6206C25.9364 18.6524 25.8077 18.877 25.712 19.037C25.4826 19.3405 25.2338 19.629 24.9673 19.9007C24.5096 20.2884 23.9727 20.5723 23.3938 20.7325C22.8906 20.8722 22.3738 20.9578 21.8523 20.9879C21.2956 21.0017 20.7481 21.1328 20.2459 21.3725C19.0894 21.9479 18.1575 23.3562 17.933 24.8599C17.9011 25.0835 17.9011 25.3717 17.9011 26.1072C17.9011 27.3555 17.9011 27.419 18.2203 29.0191C18.3333 29.6278 18.4944 30.2266 18.7022 30.81C18.9586 31.5782 19.0873 31.9301 19.0554 31.9947C19.0554 32.0265 18.9586 31.8665 18.8628 31.6418H18.8703ZM13.1201 31.29C13.1359 31.1931 13.1576 31.0972 13.185 31.0028C13.2489 30.7782 13.2489 30.6849 13.2489 29.8192C13.217 28.8909 13.217 28.8591 13.1521 28.5709C12.9914 27.8991 12.7031 27.3226 12.1563 26.459C11.8999 26.0754 11.8999 26.0754 11.9637 26.1072C12.1885 26.311 12.393 26.536 12.5744 26.779C12.8489 27.1378 13.0856 27.5238 13.2808 27.9309C13.5698 28.4635 13.7346 29.0543 13.7627 29.6592V30.011L13.7308 29.8828C13.6989 29.7863 13.667 29.7546 13.634 29.7546C13.601 29.7546 13.6021 29.7863 13.5702 29.9146C13.5063 30.4582 13.2808 31.1629 13.1521 31.2921C13.0882 31.3229 13.0882 31.3229 13.1201 31.29ZM19.5129 31.29C19.3841 31.13 19.2235 30.6182 19.1267 30.1064C19.0628 29.691 19.0309 29.6592 18.966 29.8828L18.9022 30.0428L18.9341 29.691C18.9297 29.3194 18.995 28.9503 19.1267 28.6027C19.2873 28.0273 19.8012 27.1637 20.2831 26.5554C20.4437 26.3636 20.7331 26.0754 20.7331 26.1072C20.765 26.1072 20.6682 26.2354 20.5725 26.3954C20.0267 27.2272 19.7373 27.8355 19.5767 28.4745C19.448 28.8909 19.448 29.0827 19.448 29.9464C19.448 30.6828 19.448 30.7782 19.5129 31.0346C19.5448 31.1946 19.5767 31.3229 19.5767 31.3229C19.5599 31.3049 19.5373 31.2933 19.5129 31.29ZM13.8914 27.8355C13.9034 27.2661 13.8495 26.6971 13.7308 26.14C13.5702 25.5328 13.3776 25.1863 13.0563 24.861C12.8308 24.6363 12.7372 24.5728 12.1244 24.2527C10.3903 23.3245 9.26579 22.4926 8.72003 21.7572C8.49449 21.469 8.36683 21.149 8.36683 20.9889C8.39875 20.9254 8.39875 20.9571 8.59131 21.2136C8.84876 21.5315 8.88067 21.5972 9.29771 21.8494C9.66878 22.1326 10.0668 22.3789 10.486 22.5848C11.1358 22.8572 11.8007 23.0922 12.4776 23.2884C13.2808 23.5449 13.5414 23.6402 13.6989 23.7049C13.9872 23.8649 14.3372 24.4403 14.5021 25.0168C14.5538 25.2909 14.5752 25.5698 14.5659 25.8486C14.5659 26.3922 14.5659 26.4558 14.534 26.4558C14.5021 26.4558 14.5021 26.4558 14.3415 25.82L14.2446 25.4046L14.2127 26.3C14.2127 27.2283 14.1808 27.5801 14.084 28.0601C14.0518 28.181 14.0087 28.2988 13.9553 28.4119L13.9234 28.5402L13.8914 27.8355ZM18.7448 28.4427C18.6809 28.3473 18.616 28.0273 18.5522 27.8069C18.4873 27.3597 18.4873 27.0715 18.4554 26.2714V25.4078L18.3192 25.856C18.1915 26.4632 18.1915 26.4632 18.1267 26.4632C18.0947 26.4632 18.0947 26.3996 18.0947 25.8878C18.1267 25.3442 18.1267 25.252 18.1915 24.9913C18.3522 24.4159 18.7054 23.8723 19.0267 23.6805C19.1873 23.6159 19.5724 23.4876 20.2469 23.2958C20.9117 23.0947 21.5658 22.8598 22.2065 22.5922C22.5937 22.39 22.9688 22.1656 23.33 21.9204C23.7162 21.6322 23.8768 21.5039 24.0374 21.2846C24.1332 21.1882 24.1981 21.061 24.2619 20.9964L24.3257 20.9328L24.2938 21.061C24.2619 21.3789 24.0374 21.7328 23.6555 22.1482C23.0172 22.8201 22.0502 23.4601 20.6044 24.2284C19.9661 24.5802 19.8331 24.6755 19.5767 24.932C19.3309 25.1925 19.1546 25.5102 19.0639 25.856C18.8714 26.4314 18.8065 26.9157 18.8065 27.9033C18.8065 28.2551 18.7745 28.5391 18.7745 28.5391C18.7712 28.5053 18.7611 28.4725 18.7448 28.4427ZM13.5414 27.383C13.3863 27.2031 13.2455 27.0114 13.1201 26.8097C12.735 26.2661 12.3499 25.7861 12.1244 25.6261C11.9699 25.5205 11.8089 25.4246 11.6424 25.3389C11.4818 25.2425 11.1935 25.0507 11.0648 24.9542C10.7456 24.7306 9.97219 23.9624 9.74772 23.6752C9.61899 23.4823 9.42856 23.1305 9.42856 23.067C9.42856 23.0352 9.52537 23.1305 10.0073 23.547C10.2637 23.7388 10.5531 23.9624 10.6456 24.0588C11.1275 24.4106 11.5776 24.6342 11.8988 24.666L12.0276 24.6989L12.2201 24.9224C12.3489 25.1112 12.4882 25.2927 12.6372 25.4661C13.0233 26.0107 13.3446 26.5257 13.4723 26.9062C13.5096 27.0046 13.5526 27.1008 13.601 27.1944C13.6271 27.2548 13.638 27.3206 13.6329 27.3862V27.5144L13.5414 27.383ZM19.0341 27.383C19.0454 27.3162 19.067 27.2515 19.098 27.1912C19.1468 27.0979 19.1898 27.0016 19.2267 26.903C19.3873 26.4547 19.6437 26.0075 20.2225 25.2393C20.6395 24.6957 20.6714 24.6957 20.7682 24.6957C20.8703 24.6835 20.9687 24.6507 21.0576 24.5992C21.4746 24.471 21.8608 24.2156 22.5991 23.6074C22.8236 23.4156 23.081 23.192 23.1449 23.1274C23.2736 23.0638 23.2736 23.0638 23.2417 23.1274C23.081 23.672 21.8927 24.8557 21.0576 25.3357C20.9 25.4069 20.7494 25.4924 20.6076 25.5911C20.3831 25.7511 20.0299 26.1676 19.5799 26.8065C19.0309 27.579 19.0309 27.5515 19.0309 27.3872L19.0341 27.383ZM17.9096 21.1437C17.9095 21.0575 17.9203 20.9717 17.9415 20.8883C18.0064 20.6965 18.0064 20.5365 18.0384 20.0564C18.0384 19.3528 18.0064 18.9968 17.9096 18.5528C17.7171 17.6891 17.4596 17.1444 16.4319 15.5772C15.9819 14.9054 15.7255 14.4253 15.7574 14.3935C15.878 14.3589 15.996 14.3161 16.1106 14.2653C16.3351 14.1689 16.4298 14.1053 16.4298 14.0735C16.3702 14.0149 16.3058 13.9614 16.2372 13.9135C16.1748 13.8698 16.1205 13.8157 16.0766 13.7535C16.1794 13.593 16.2977 13.4429 16.4298 13.3053C16.6224 13.0817 16.783 12.8899 16.749 12.8899C16.749 12.857 16.3638 13.0499 16.1383 13.1452C15.5287 13.5288 14.9819 14.0089 14.9819 14.2335C14.9819 14.2653 15.0787 14.5207 15.1755 14.8089C15.2723 15.0972 15.4 15.4172 15.4319 15.5507C15.5076 15.7537 15.5296 15.9726 15.4957 16.1865C15.4957 16.5712 15.4957 16.603 15.4319 16.763C15.371 16.8865 15.2835 16.995 15.1755 17.0809C15.1425 17.0809 15.1425 17.0809 15.2074 16.9526C15.4 16.3168 15.2713 15.5454 14.8542 15.0972C14.6728 14.9171 14.4346 14.8048 14.1797 14.7793C13.9861 14.7475 13.9542 14.7475 13.3116 14.8757L13.2478 14.9075L13.3116 14.811C13.3784 14.755 13.4548 14.7116 13.5372 14.6828C13.7096 14.608 13.8472 14.4709 13.9223 14.2992C13.9861 14.171 14.2117 13.9813 14.5329 13.7238C15.5968 12.892 16.4915 12.3802 17.1341 12.3155C17.616 12.2519 18.066 12.4119 18.2586 12.7955C18.3554 12.9556 18.3554 13.0191 18.2586 12.9238C18.0341 12.732 17.6479 12.7955 17.1022 13.1474C16.9113 13.2729 16.7384 13.4237 16.5883 13.5956C16.5564 13.6592 16.5564 13.691 16.6202 13.7556C16.6851 13.8838 16.9394 14.1074 17.1671 14.2356C17.3034 14.3123 17.4601 14.3456 17.616 14.331C17.7372 14.3385 17.8583 14.3167 17.9692 14.2674C18.0022 14.2674 18.066 14.2356 18.066 14.2674C18.0979 14.2674 18.0979 14.331 18.0979 14.4274C18.0979 14.5557 18.0979 14.5875 18.0341 14.6192C17.9054 14.7157 17.4554 14.7475 16.9702 14.6828L16.5851 14.651V14.7475C16.6209 14.872 16.6751 14.9906 16.7458 15.0993C16.9892 15.5625 17.2913 15.9927 17.6447 16.3794C17.8703 16.603 17.9022 16.6665 18.0309 17.0152C18.2353 17.6672 18.3428 18.3455 18.3501 19.0285C18.3501 19.7957 18.2213 20.4994 18.0607 20.884C17.9703 21.0525 17.9064 21.1797 17.9064 21.1479L17.9096 21.1437ZM10.6797 18.9681C9.3626 18.8399 7.75618 18.2963 6.47104 17.5609C5.8021 17.1338 5.17802 16.6406 4.60822 16.089C4.35184 15.8008 3.83799 15.1289 3.48373 14.6171C3.22734 14.2335 2.96988 13.7535 3.00286 13.7217C3.00286 13.6889 3.16351 13.8171 3.35606 14.0089C3.9331 14.5522 4.55638 15.0447 5.21888 15.4808C5.60399 15.7054 6.34338 16.089 6.47104 16.1166C6.56785 16.1484 6.56785 16.1484 6.53593 16.0848C6.50402 16.053 6.24656 15.7669 5.9572 15.449C5.12739 14.6235 4.54439 13.8531 4.09438 12.9577C3.48373 11.6458 3.09861 10.4621 3.03478 9.37387C3.00286 9.05596 3.00286 8.92668 3.0667 8.31419C3.09861 7.93059 3.13053 7.57878 3.13053 7.54593C3.16351 7.48235 3.16351 7.51414 3.32309 7.86383C3.43469 8.20081 3.56358 8.53187 3.70927 8.85569C3.96566 9.56037 3.99863 9.68753 4.22311 10.104C4.70504 10.9676 5.25079 11.7677 5.31463 11.703C5.31463 11.703 5.21888 11.3512 5.09015 10.9676C4.67312 9.72038 4.60822 9.27214 4.57631 8.05669C4.57631 7.16021 4.60822 6.74482 4.70504 6.16835C4.83833 5.49141 5.03164 4.82757 5.28271 4.18465C5.44654 3.74382 5.79655 3.03914 5.89336 2.94377L5.9572 2.87913L5.92528 2.94377C5.92528 2.97556 5.86145 3.23094 5.79655 3.48738C5.54016 4.54706 5.50825 5.08749 5.50825 6.33472C5.51408 7.01171 5.58929 7.68634 5.73272 8.3481C5.86145 8.95635 6.02209 9.46818 6.11784 9.46818V9.37175C6.11784 8.95635 6.43699 7.93271 6.82424 6.87622C7.24233 5.88436 7.94874 4.63713 8.52641 3.90066C8.71897 3.64527 9.74665 2.62163 10.0999 2.30161C10.485 1.9498 11.0956 1.56514 11.6095 1.24194C12.0286 1.02364 13.0563 0.511822 13.5063 0.317902C13.8914 0.189681 14.2127 0.061461 14.5021 0H14.5978L14.534 0.0635804C14.5021 0.0964302 14.3085 0.223591 14.1159 0.351811C13.9234 0.480032 13.6989 0.635804 13.6021 0.703623C12.3818 1.76012 11.7393 2.43725 11.0967 3.32737C10.1194 4.69371 9.45082 6.25474 9.13706 7.90304C9.04427 8.44266 9.00154 8.98964 9.0094 9.53706C9.00121 10.2792 9.0765 11.02 9.23387 11.7454C9.41211 12.6168 9.65898 13.4728 9.97219 14.3056C10.1658 14.7538 10.6105 15.6832 10.968 16.3529C11.2871 16.9293 11.4818 17.2811 11.4818 17.3129C11.4499 17.3129 11.0648 16.8975 10.8722 16.6411C10.3903 16.0053 9.55516 14.722 9.20196 14.0174C8.60621 12.8651 8.21497 11.619 8.04555 10.3339C7.98065 9.72674 7.94874 8.41486 8.04555 7.87019C8.17222 6.928 8.44386 6.01087 8.85089 5.15107C8.97855 4.89463 9.07536 4.70283 9.04344 4.70283C9.01153 4.67104 8.75408 4.99106 8.56152 5.27929C7.8492 6.30145 7.34699 7.4539 7.08382 8.67024C6.85935 9.50209 6.82637 9.8539 6.79445 11.1075V12.1311L6.6987 12.0347C6.53806 11.9075 6.28061 11.5229 5.99124 10.8828C5.54229 10.0192 5.38165 9.76382 5.41356 9.98742C5.4774 10.3392 5.60612 10.7292 5.99124 11.5875C6.3455 12.4194 6.60189 12.9312 6.92318 13.283C7.01999 13.3794 7.11574 13.5066 7.14765 13.5384L7.21255 13.6348L6.98701 13.603C6.60189 13.5712 6.37742 13.5066 5.86358 13.2512C5.6864 13.1553 5.50382 13.0697 5.31675 12.9948L5.22101 12.963L5.34973 13.1866C5.73485 13.7312 6.53806 14.6585 7.27638 15.4903C7.98278 16.2321 8.24023 16.4822 8.59343 16.7386C9.29983 17.2504 9.39664 17.314 9.39664 17.3458C9.36473 17.3458 8.85089 17.2504 8.49662 17.154C7.78703 16.9887 7.59553 16.9548 7.21042 16.9548L6.82424 16.923L6.88913 16.9866C7.04978 17.2727 8.04555 17.7569 9.52324 18.3323C10.1328 18.557 10.968 18.9088 11.1286 18.9681L11.2254 18.9999H11.0648C10.9356 19.0028 10.8066 18.9921 10.6797 18.9681ZM21.4714 18.9999C21.5044 18.9999 22.3065 18.682 23.0778 18.3641C24.5555 17.7877 25.5247 17.3394 25.7439 17.0523L25.8407 16.9558H25.5832C25.2641 16.924 24.9449 16.9876 24.2662 17.1476C23.947 17.2123 23.6555 17.2758 23.5598 17.3076C23.4949 17.3076 23.3991 17.3076 23.3672 17.3394C23.3342 17.3394 23.3342 17.3394 23.3342 17.3076C23.3342 17.3076 23.5917 17.1158 23.8811 16.8922C24.4587 16.4758 24.6513 16.2564 25.4226 15.4204C25.8784 14.9653 26.3075 14.4845 26.7077 13.9803C27.0609 13.5649 27.478 12.9884 27.446 12.9884C27.4141 12.9566 27.1269 13.053 26.8077 13.2448C26.6152 13.3402 26.3907 13.4367 26.262 13.5002C26.0694 13.5649 25.5875 13.6285 25.5237 13.5967C25.4907 13.5967 25.5875 13.4684 25.7481 13.3084C26.1013 12.893 26.3588 12.4448 26.712 11.613C26.8396 11.2611 27.0003 10.8447 27.0652 10.6529C27.1939 10.3011 27.2897 9.94927 27.2577 9.91748C27.2258 9.88569 27.1609 10.0128 26.8396 10.6847C26.3907 11.5494 26.2301 11.8048 26.0694 11.9966L25.9088 12.1248L25.8769 11.1011C25.8769 9.94927 25.8449 9.66104 25.7162 8.9892C25.6194 8.6056 25.5237 8.28558 25.33 7.64554C25.081 6.95745 24.7694 6.29345 24.3992 5.66183C24.046 5.11822 23.6928 4.63819 23.6545 4.70177C23.697 4.84454 23.7507 4.98378 23.8151 5.11822C24.1087 5.7322 24.3348 6.37598 24.4896 7.03835C24.6502 7.71018 24.6832 8.0302 24.6832 9.02205C24.6957 9.43844 24.6846 9.85519 24.6502 10.2703C24.4807 11.5014 24.1219 12.6991 23.5864 13.8213C23.0261 14.8565 22.3929 15.8508 21.6916 16.7969C21.4661 17.0533 21.2097 17.3405 21.2097 17.3087C21.2097 17.2769 21.3384 17.0533 21.7236 16.285C22.4619 15.005 22.7512 14.3331 23.1066 13.1495C23.4025 12.1813 23.5866 11.1826 23.6555 10.1729C23.7593 8.61941 23.4955 7.06337 22.8853 5.63004C22.2108 3.96636 21.1501 2.52626 19.6086 1.17942C18.998 0.635804 18.9703 0.604014 18.5809 0.347573C18.099 0.0296708 18.0671 -0.00423869 18.2916 0.0296708C19.0628 0.189681 20.6682 0.957944 21.6321 1.59799C22.1459 1.9498 22.4672 2.20518 23.1747 2.87701C23.813 3.48526 24.0098 3.67706 24.2662 4.02888C24.8299 4.82222 25.3141 5.66871 25.712 6.5562C26.1609 7.64448 26.5471 8.88748 26.5471 9.37175C26.5471 9.75641 26.8035 9.14816 26.9641 8.3481C27.1248 7.48447 27.1567 7.28843 27.1567 6.26902C27.1897 4.98894 27.1248 4.57355 26.8375 3.35704C26.8165 3.19507 26.7845 3.0347 26.7418 2.87701C26.7737 2.87701 26.9024 3.06881 27.0311 3.35704C27.5741 4.4428 27.9335 5.61034 28.095 6.81264C28.1269 7.26088 28.1269 8.57275 28.0631 8.98814C27.9864 9.6765 27.8245 10.3528 27.5812 11.0015C27.4524 11.418 27.3567 11.7051 27.3886 11.7051C27.5173 11.7051 28.4524 10.2015 28.7376 9.52964C28.8014 9.40248 28.962 8.95423 29.1227 8.50599C29.2833 8.0906 29.4418 7.67415 29.4759 7.61057C29.5408 7.51414 29.5408 7.48235 29.5727 7.54593C29.5727 7.61057 29.6046 7.93059 29.6365 8.2877C29.7014 9.05596 29.7014 9.40777 29.6046 9.98318C29.3801 11.2633 28.7376 12.8623 28.0631 13.887C27.6811 14.4356 27.251 14.9495 26.7779 15.4225C26.4886 15.7404 26.2003 16.0297 26.1673 16.0583L26.1354 16.1537L26.2003 16.1219C26.4247 16.0583 27.3567 15.5782 27.9024 15.1936C28.2556 14.9382 28.8663 14.4264 29.3152 14.0428C29.5078 13.8499 29.6684 13.6899 29.7014 13.7249C29.5587 14.0411 29.3844 14.3421 29.1812 14.6235C28.8568 15.1504 28.4801 15.6435 28.0567 16.0954C27.7192 16.4541 27.3436 16.7753 26.9365 17.0533C25.5237 18.1405 23.4672 18.9088 21.7331 19.0042L21.4714 18.9999Z" fill="#B1B1B1"/>
<path d="M33.9219 17.3981H36.1081V11.5265H42.1604V9.68903H36.1081V5.24582H42.7168V3.36914H33.9219V17.3981Z" fill="#B1B1B1"/>
<path d="M53.5656 15.5119H46.8112V11.1567H53.205V9.34887H46.8112V5.24582H53.5656V3.36914H44.625V17.3981H53.5656V15.5119Z" fill="#B1B1B1"/>
<path d="M57.9402 7.06422H58.0285L65.3297 17.3981H67.3011V3.36914H65.1734V13.7137H65.0946L57.7945 3.36914H55.8125V17.3981H57.9402V7.06422Z" fill="#B1B1B1"/>
<path d="M72.0769 3.36914H69.8906V17.3981H72.0769V3.36914Z" fill="#B1B1B1"/>
<path d="M73.8125 17.3981H76.2328L79.7861 12.051H79.8541L83.3574 17.3981H85.9149L81.2297 10.4372V10.3789L86.0033 3.36914H83.534L80.0201 8.79466H79.9414L76.4668 3.36914H73.8604L78.4871 10.3015V10.3693L73.8125 17.3981Z" fill="#B1B1B1"/>
<path d="M34.6826 20.7119H33.9453V28.5058H34.6826V20.7119Z" fill="#B1B1B1"/>
<path d="M41.842 27.2204H41.8047L37.2163 20.7119H36.4844V28.5058H37.2163V21.992H37.2546L41.859 28.5058H42.5739V20.7119H41.842V27.2204Z" fill="#B1B1B1"/>
<path d="M46.9428 20.7119H44.3672V28.5047H46.9428C48.1173 28.5047 49.029 28.1635 49.678 27.4811C50.3269 26.7987 50.6514 25.84 50.6514 24.6051C50.6514 23.3738 50.3262 22.4169 49.6758 21.7345C49.0255 21.0521 48.1144 20.7112 46.9428 20.7119ZM49.1194 26.9989C48.601 27.5577 47.8609 27.8368 46.8992 27.8361H45.1098V21.3816H46.8992C47.8609 21.3816 48.601 21.6607 49.1194 22.2188C49.6379 22.7769 49.8975 23.5744 49.8982 24.6115C49.8982 25.6457 49.6386 26.4416 49.1194 26.9989Z" fill="#B1B1B1"/>
<path d="M57.4468 25.7411C57.4468 26.4038 57.2425 26.9364 56.834 27.3391C56.4255 27.7418 55.8669 27.9435 55.1584 27.9442C54.4492 27.9442 53.8907 27.7425 53.4828 27.3391C53.075 26.9357 52.8708 26.4031 52.8701 25.7411V20.7119H52.1328V25.7835C52.1328 26.6312 52.4048 27.3183 52.9488 27.8446C53.4928 28.3709 54.2293 28.6326 55.1584 28.6298C56.0875 28.6298 56.8251 28.368 57.3712 27.8446C57.9173 27.3211 58.1901 26.6341 58.1893 25.7835V20.7119H57.4446L57.4468 25.7411Z" fill="#B1B1B1"/>
<path d="M63.0683 24.2879L62.2225 24.076C61.6438 23.9276 61.2261 23.7482 60.9693 23.5377C60.8458 23.4404 60.7467 23.3159 60.6799 23.1739C60.6131 23.0319 60.5803 22.8764 60.5842 22.7196C60.5809 22.5148 60.6276 22.3122 60.7202 22.1292C60.8129 21.9463 60.9487 21.7885 61.1161 21.6695C61.4707 21.3968 61.9215 21.2608 62.4683 21.2615C63.0151 21.2622 63.4726 21.3964 63.8407 21.6642C64.0115 21.7865 64.153 21.9449 64.2551 22.1281C64.3572 22.3113 64.4173 22.5148 64.4311 22.7239H65.1758C65.1688 22.4262 65.0944 22.1339 64.9581 21.869C64.8218 21.604 64.6271 21.3731 64.3885 21.1937C63.8843 20.7924 63.2527 20.5918 62.4938 20.5918C61.7193 20.5918 61.081 20.7942 60.5789 21.199C60.3389 21.3793 60.1452 21.6135 60.0133 21.8825C59.8815 22.1516 59.8154 22.4478 59.8204 22.7472C59.8116 22.9784 59.8517 23.2089 59.938 23.4237C60.0244 23.6386 60.155 23.833 60.3214 23.9944C60.6555 24.3151 61.1874 24.5673 61.9172 24.751L62.8885 24.999C63.4708 25.1473 63.8935 25.3356 64.1566 25.5638C64.2852 25.6728 64.3875 25.8092 64.456 25.9629C64.5245 26.1166 64.5574 26.2837 64.5524 26.4518C64.5541 26.6651 64.5035 26.8756 64.4048 27.0649C64.3062 27.2542 64.1625 27.4166 63.9864 27.5379C63.6084 27.8205 63.1265 27.9618 62.5406 27.9618C61.93 27.9618 61.4222 27.817 61.0172 27.5273C60.8239 27.4015 60.6622 27.2332 60.5445 27.0354C60.4269 26.8375 60.3564 26.6154 60.3384 26.3861H59.5938C59.6058 26.7026 59.6885 27.0125 59.8357 27.2933C59.9829 27.5741 60.191 27.8187 60.4448 28.0095C60.9725 28.4214 61.6463 28.6273 62.4662 28.6273C63.33 28.6273 64.0187 28.4214 64.5322 28.0095C64.7813 27.815 64.9809 27.5647 65.1147 27.2789C65.2485 26.9932 65.3128 26.68 65.3024 26.3649C65.3024 25.8245 65.1269 25.3921 64.7758 25.0678C64.4247 24.7436 63.8556 24.4836 63.0683 24.2879Z" fill="#B1B1B1"/>
<path d="M66.1484 21.3816H68.7676V28.5058H69.5102V21.3816H72.1294V20.7119H66.1484V21.3816Z" fill="#B1B1B1"/>
<path d="M78.2571 24.4077C78.5584 23.999 78.7149 23.5021 78.7018 22.9952C78.7018 22.3 78.4752 21.7465 78.022 21.3347C77.5688 20.9228 76.9602 20.7165 76.1964 20.7158H73.3984V28.5055H74.1368V25.3148H76.257L78.0571 28.5055H78.9188L77.0262 25.1951C77.5163 25.084 77.9518 24.8054 78.2571 24.4077ZM76.1368 24.661H74.1368V21.376H76.1102C76.6819 21.376 77.129 21.5208 77.4517 21.8105C77.7744 22.1001 77.9365 22.5024 77.9379 23.0174C77.9379 23.5402 77.7798 23.9454 77.4634 24.2329C77.1471 24.5204 76.7049 24.6631 76.1368 24.661Z" fill="#B1B1B1"/>
<path d="M85.1372 20.7119L82.8212 24.4123H82.7946L80.4786 20.7119H79.6328L82.4361 25.136V28.5058H83.1797V25.136L85.983 20.7119H85.1372Z" fill="#B1B1B1"/>
</g>
<defs>
<clipPath id="clip0_54_709">
<rect width="86" height="32" fill="white"/>
</clipPath>
</defs>
</svg>
