<svg width="153" height="96" viewBox="0 0 153 96" fill="none" xmlns="http://www.w3.org/2000/svg">
<g clip-path="url(#clip0_50_640)">
<mask id="mask0_50_640" style="mask-type:luminance" maskUnits="userSpaceOnUse" x="0" y="1" width="53" height="94">
<path d="M52.5417 1.07422H0V94.9286H52.5417V1.07422Z" fill="white"/>
</mask>
<g mask="url(#mask0_50_640)">
<path d="M52.3051 90.6289C51.5076 89.1802 47.567 94.0698 41.14 92.8021C34.713 91.5345 32.5082 87.3691 29.0836 83.2491C22.5627 75.4619 10.4594 79.4008 5.15834 68.6254C-0.142746 61.0193 5.15834 56.1749 4.68921 50.1986C4.17318 41.6871 7.45704 28.1047 11.21 21.1323C19.7012 6.87082 21.0147 9.90422 30.2095 7.73104C34.3378 6.64445 44.4238 4.69763 48.5522 5.4673C49.1151 4.83346 44.7992 4.15434 44.7522 3.97324C46.0189 2.66028 53.6187 4.60709 52.2114 1.30204C48.5053 0.487094 46.5818 1.98115 41.9844 2.70556C37.387 3.42995 34.7599 5.28621 30.9601 5.87478C27.2071 7.59522 20.6393 6.64445 17.637 9.5873C7.08174 17.8725 1.9683 35.0769 2.39051 40.8721C2.81272 46.6673 1.03006 48.433 1.35844 50.9684C1.68683 53.5037 2.71891 53.1869 0.84241 56.4466C-0.987167 59.661 0.748586 59.7517 0.279463 64.1886C-0.189658 68.6254 4.07935 71.1156 4.97069 71.9758C5.86202 72.836 6.89409 73.6962 7.55086 74.828C8.20763 75.9599 10.694 76.458 11.4915 77.6804C12.289 78.9028 13.2741 79.3556 16.3703 79.4008C19.4666 79.4461 23.6417 81.6193 24.6738 82.3889C25.7059 83.1586 30.2564 90.5836 35.792 93.436C39.7327 94.7489 44.8461 95.6545 48.3176 94.2509C51.2262 92.4852 53.1026 92.0778 52.3051 90.6289Z" fill="black"/>
<path d="M49.0662 73.0607C49.0662 73.0607 50.0513 73.2872 51.0365 72.9248C52.4908 72.3816 53.2882 71.0687 51.5056 71.5667C49.7698 72.0646 48.7848 72.4269 49.0662 73.0607Z" fill="black"/>
<path d="M36.2184 73.061C36.2184 73.061 40.1591 73.9213 44.8033 73.6045C49.4477 73.2421 42.8331 72.6536 42.8331 72.6536L36.7815 72.3367C36.7815 72.2914 35.4209 72.5178 36.2184 73.061Z" fill="black"/>
<path d="M44.66 81.9255C35.3375 82.9527 28.2228 72.0273 21.8442 67.4983C15.4656 63.2963 10.3136 58.2071 11.5894 53.0711C12.8651 47.9353 14.3862 10.2565 42.5993 12.7778C45.0035 13.198 53.3447 14.2252 52.4124 12.6844C45.1508 12.9645 48.8306 8.29554 31.314 12.4976C15.6129 16.2796 11.3931 42.3325 9.67578 56.9465C10.1664 66.6113 21.1573 65.8176 25.7205 73.3814C30.9215 79.5444 39.1156 83.513 43.5805 83.8865C44.9054 83.6531 53.6882 81.7387 52.4124 79.8713C51.284 80.2448 46.8189 81.6921 44.66 81.9255Z" fill="black"/>
<path d="M33.0055 19.9385C35.1818 20.3037 31.3665 20.8892 28.0799 25.1023C28.0799 25.1023 32.0884 19.5142 25.0677 29.6045C19.0172 38.2794 24.4129 49.9639 28.4259 55.4815C28.7641 55.9228 28.7361 56.0556 28.7445 56.2425C28.7802 56.5276 28.8712 56.778 28.6051 56.6758C28.3849 56.5833 27.5341 55.6176 27.0674 55.1031C12.8192 39.7055 25.0341 23.8599 33.0055 19.9385Z" fill="black"/>
<path d="M33.6335 66.7213C33.352 66.5854 33.1174 66.3591 32.8829 66.1326C31.8508 65.2724 30.4434 65.0461 29.1299 64.5933C27.5818 64.05 26.1275 63.0993 25.0486 61.8315C24.8609 61.6052 24.6732 61.3789 24.4856 61.1072C24.1573 60.6998 23.8757 60.3376 23.4535 60.0206C23.219 59.8396 22.7967 59.5226 22.4683 59.5678C22.0462 59.6131 22.2338 60.0206 22.3277 60.3828C22.4683 60.9261 22.8906 61.2883 23.3127 61.6957C23.6881 62.058 24.0634 62.4654 24.4856 62.8276C26.1744 64.4574 28.2386 65.8157 30.6311 66.1779C30.9595 66.2233 31.3347 66.2685 31.6632 66.4044C32.226 66.6307 32.6014 67.0835 33.0235 67.4909C33.4458 67.8983 34.0556 68.2153 34.6187 67.9889C34.8062 67.8983 35.0408 67.7626 35.0408 67.5361" fill="black"/>
<path d="M52.3056 61.3356C50.6637 62.5127 51.9772 61.6525 48.928 62.241C46.7699 62.7843 43.4392 61.6525 41.2813 59.9773C39.1233 58.3021 38.701 57.7136 37.9504 55.7669C37.1999 53.8199 34.5259 52.1901 33.0247 50.3338C30.4445 48.6586 31.3359 38.3813 31.8988 37.4306C33.5876 27.289 42.0788 18.053 52.3056 20.0451V19.049C36.8716 15.2912 28.3334 34.1255 29.694 45.761C31.1013 57.4419 36.4493 54.8613 37.9035 58.3475C40.2492 62.6938 47.9897 65.2293 52.3056 62.4221V61.3356Z" fill="black"/>
<path d="M52.3084 28.8726C52.1208 28.8274 51.6517 28.7368 50.4319 28.9179C48.8839 29.099 47.242 30.9553 47.242 30.9553C47.242 30.9553 46.7258 31.5892 46.7258 32.4494C46.7258 33.3096 45.647 35.3922 45.6939 35.7544C45.7408 36.1166 45.2716 37.9729 46.9135 38.652C48.5554 39.3763 50.0098 39.1046 50.8542 41.1874C51.4171 42.6361 51.98 42.6361 52.3084 42.5003V28.8726Z" fill="black"/>
<path d="M52.5417 53.2747C52.1195 53.4106 50.5244 53.818 49.7738 52.1428C48.8825 50.2413 47.0998 47.2532 44.3321 47.2078C41.5643 47.1626 40.0161 45.4874 39.7347 42.9067C39.5001 40.2809 39.8285 38.7869 40.0161 37.655C40.2037 36.523 40.4853 33.9424 41.8456 31.9956C43.2531 30.0489 44.2852 28.7811 45.5987 28.1926C46.8654 27.6039 48.7886 26.9249 49.0702 26.6532C49.3517 26.4269 52.4478 26.4269 52.4478 26.4269L52.5417 25.9289V25.3856C52.0726 25.295 49.9146 24.9328 47.006 26.4269C43.7222 28.1019 41.7518 29.415 40.2507 32.8106C38.7495 36.2062 38.7026 40.8241 38.8903 41.4128C39.0779 42.0013 38.3272 45.2158 41.142 46.9815C43.9567 48.702 46.7715 47.5702 48.3665 51.3732C49.7738 54.7687 52.0257 54.3613 52.5417 54.2254V53.2747Z" fill="black"/>
</g>
<path d="M68.1272 45.4905V11.4362H63.1123V3.34375H81.5979V11.4362H76.583V45.4905H68.1272Z" fill="#743520"/>
<path d="M83.5576 45.4905V3.34375H91.721V45.4905H83.5576Z" fill="#743520"/>
<path d="M95.1064 45.4905V3.34375H107.983L111.528 29.0515L115.063 3.34375H128.043V45.4905H120.323V15.1248L115.459 45.4905H107.889L102.723 15.1248V45.4905H95.1064Z" fill="#743520"/>
<path d="M64.4902 49.8662H75.9437C79.0214 49.8662 81.2555 50.6189 82.6459 52.1245C84.0412 53.6301 84.7387 56.0838 84.7387 59.4831V61.3462C84.7387 65.3737 83.2964 67.7802 80.4118 68.5635C82.184 69.0223 83.4284 70.0856 84.1448 71.7535C84.8659 73.4237 85.2289 75.6303 85.2289 78.3781C85.2289 82.8571 84.5548 86.2517 83.2116 88.5594C81.8729 90.8626 79.4503 92.0128 75.9437 92.0128H64.4902V49.8662ZM74.4731 65.7123C75.1894 65.7123 75.6796 65.4443 75.9437 64.9032C76.2076 64.3644 76.3396 63.6045 76.3396 62.6259V58.4009C76.3396 57.0271 75.7315 56.3402 74.5202 56.3402H72.748V65.7123H74.4731ZM73.587 84.6073C75.7787 84.6073 76.8768 83.5605 76.8768 81.4645V76.2137C76.8768 74.9411 76.6883 73.9789 76.3113 73.325C75.9342 72.6662 75.2696 72.3369 74.3223 72.3369H72.748V84.5509L73.587 84.6073Z" fill="#838286"/>
<path d="M88.0264 92.0128V49.8662H104.938V58.0152H96.6328V66.2016H104.589V74.153H96.6328V83.8169H105.475V92.0128H88.0264Z" fill="#838286"/>
<path d="M108.278 49.8662H121.259C123.319 49.8662 124.916 50.3343 126.048 51.2682C127.179 52.1976 127.938 53.5055 128.329 55.1922C128.725 56.8742 128.923 59.0267 128.923 61.6473C128.923 64.0328 128.612 65.8959 127.989 67.2368C127.367 68.5801 126.286 69.5116 124.747 70.0315C126.022 70.295 126.945 70.9349 127.518 71.9512C128.095 72.9626 128.385 74.3318 128.385 76.0632L128.282 92.0128H120.024V75.5269C120.024 74.3482 119.793 73.5955 119.336 73.2685C118.876 72.9439 118.04 72.7792 116.828 72.7792V92.0128H108.278V49.8662ZM118.893 65.4677C120.073 65.4677 120.665 64.1951 120.665 61.6473C120.665 60.5323 120.613 59.6972 120.514 59.1443C120.42 58.5868 120.241 58.201 119.977 57.9869C119.713 57.7752 119.336 57.6669 118.846 57.6669H116.885V65.4677H118.893Z" fill="#838286"/>
<path d="M130.591 92.0128L134.673 49.8662H148.973L153.007 92.0128H144.995L144.401 85.1907H139.292L138.801 92.0128H130.591ZM139.933 78.4722H143.769L141.893 57.0271H141.507L139.933 78.4722Z" fill="#838286"/>
<path d="M57.4199 93.6794V1.60645" stroke="#292425" stroke-width="1.55262"/>
</g>
<defs>
<clipPath id="clip0_50_640">
<rect width="153" height="96" fill="white"/>
</clipPath>
</defs>
</svg>
