<svg width="280" height="175" viewBox="0 0 280 175" fill="none" xmlns="http://www.w3.org/2000/svg">
<g clip-path="url(#clip0_66_110)">
<mask id="mask0_66_110" style="mask-type:luminance" maskUnits="userSpaceOnUse" x="0" y="1" width="97" height="173">
<path d="M96.1547 1.95801H0V173.047H96.1547V1.95801Z" fill="white"/>
</mask>
<g mask="url(#mask0_66_110)">
<path d="M95.7218 165.209C94.2623 162.568 87.0508 171.482 75.289 169.171C63.5271 166.86 59.4922 159.267 53.225 151.756C41.2914 137.561 19.1415 144.741 9.4402 125.099C-0.261126 111.233 9.4402 102.402 8.58167 91.5081C7.6373 75.9922 13.647 51.2327 20.5152 38.5226C36.0546 12.5251 38.4583 18.0548 55.2855 14.0932C62.8404 12.1125 81.2986 8.56358 88.8538 9.96663C89.8839 8.81118 81.9855 7.57322 81.8996 7.24308C84.2178 4.84966 98.1258 8.39853 95.5503 2.3737C88.7679 0.888126 85.2479 3.61167 76.8343 4.9322C68.4207 6.25271 63.613 9.63652 56.6591 10.7094C49.7908 13.8456 37.7714 12.1125 32.277 17.477C12.9601 32.5803 3.60223 63.9424 4.3749 74.5066C5.14756 85.0708 1.88519 88.2894 2.48615 92.9113C3.08711 97.5329 4.97588 96.9554 1.54177 102.898C-1.80647 108.757 1.37007 108.922 0.511545 117.011C-0.346978 125.099 7.46559 129.638 9.09679 131.206C10.728 132.774 12.6167 134.342 13.8187 136.405C15.0206 138.469 19.5708 139.377 21.0303 141.605C22.4898 143.833 24.2927 144.659 29.9588 144.741C35.6252 144.824 43.266 148.785 45.1548 150.188C47.0436 151.591 55.3714 165.127 65.5018 170.326C72.7135 172.72 82.0714 174.37 88.4244 171.812C93.7474 168.593 97.1812 167.85 95.7218 165.209Z" fill="white"/>
<path d="M89.7952 133.183C89.7952 133.183 91.5981 133.596 93.401 132.935C96.0624 131.945 97.5218 129.552 94.2594 130.46C91.0829 131.367 89.2802 132.028 89.7952 133.183Z" fill="white"/>
<path d="M66.2819 133.184C66.2819 133.184 73.4937 134.752 81.9929 134.175C90.4923 133.514 78.3873 132.442 78.3873 132.442L67.3123 131.864C67.3123 131.781 64.8225 132.194 66.2819 133.184Z" fill="white"/>
<path d="M81.7304 149.344C64.6696 151.217 51.6494 131.3 39.976 123.044C28.3027 115.384 18.8744 106.107 21.209 96.7449C23.5437 87.3826 26.3273 18.6974 77.9592 23.2935C82.359 24.0595 97.624 25.9319 95.9179 23.1232C82.6286 23.6339 89.363 15.1227 57.3064 22.7828C28.5723 29.6769 20.8499 77.1693 17.707 103.809C18.605 121.428 38.719 119.981 47.0699 133.769C56.588 145.004 71.5838 152.238 79.755 152.919C82.1795 152.493 98.2526 149.004 95.9179 145.599C93.8528 146.28 85.6814 148.918 81.7304 149.344Z" fill="white"/>
<path d="M60.403 36.3467C64.3857 37.0125 57.4035 38.0797 51.3889 45.7598C51.3889 45.7598 58.7246 35.5732 45.8763 53.9671C34.8035 69.7807 44.6779 91.0806 52.0219 101.139C52.6409 101.943 52.5897 102.185 52.6051 102.526C52.6705 103.046 52.8369 103.502 52.3499 103.316C51.947 103.147 50.3899 101.387 49.5358 100.449C23.4608 72.3802 45.8147 43.4952 60.403 36.3467Z" fill="white"/>
<path d="M61.5523 121.628C61.0371 121.381 60.6078 120.968 60.1787 120.555C58.2899 118.987 55.7142 118.574 53.3104 117.749C50.4774 116.759 47.8158 115.026 45.8414 112.715C45.4979 112.302 45.1544 111.889 44.811 111.394C44.2102 110.651 43.695 109.991 42.9222 109.413C42.4931 109.083 41.7203 108.506 41.1192 108.588C40.3467 108.671 40.6902 109.413 40.8619 110.074C41.1192 111.064 41.892 111.724 42.6646 112.467C43.3515 113.127 44.0384 113.87 44.811 114.53C47.9016 117.501 51.6792 119.977 56.0576 120.638C56.6587 120.72 57.3454 120.803 57.9464 121.05C58.9766 121.463 59.6635 122.288 60.436 123.031C61.2088 123.774 62.3248 124.352 63.3552 123.939C63.6984 123.774 64.1278 123.526 64.1278 123.114" fill="white"/>
<path d="M95.7223 111.809C92.7175 113.955 95.1212 112.387 89.5409 113.46C85.5916 114.45 79.4961 112.387 75.5471 109.333C71.5977 106.28 70.8249 105.207 69.4513 101.658C68.0777 98.1091 63.1842 95.1381 60.437 91.7542C55.7151 88.7005 57.3463 69.9657 58.3764 68.2326C61.4671 49.7455 77.0065 32.9089 95.7223 36.5404V34.7246C67.477 27.8744 51.8516 62.2078 54.3415 83.4184C56.917 104.712 66.7041 100.007 69.3655 106.362C73.6583 114.285 87.8239 118.907 95.7223 113.79V111.809Z" fill="white"/>
<path d="M95.7283 52.6326C95.3849 52.5501 94.5265 52.3849 92.2942 52.715C89.4611 53.0451 86.4563 56.429 86.4563 56.429C86.4563 56.429 85.5118 57.5845 85.5118 59.1526C85.5118 60.7207 83.5374 64.5172 83.6233 65.1774C83.7091 65.8376 82.8505 69.2215 85.8553 70.4595C88.8601 71.7799 91.5217 71.2846 93.067 75.0813C94.0971 77.7222 95.1273 77.7222 95.7283 77.4746V52.6326Z" fill="white"/>
<path d="M96.1555 97.1158C95.383 97.3634 92.4638 98.1061 91.0902 95.0524C89.459 91.586 86.1966 86.139 81.1315 86.0563C76.0662 85.9738 73.2329 82.9201 72.7179 78.2158C72.2886 73.429 72.8897 70.7056 73.2329 68.6422C73.5763 66.5788 74.0915 61.8745 76.5811 58.3257C79.1569 54.7769 81.0457 52.4658 83.4494 51.393C85.7675 50.32 89.2873 49.0822 89.8025 48.5869C90.3177 48.1744 95.9838 48.1744 95.9838 48.1744L96.1555 47.2665V46.2761C95.2971 46.1109 91.3478 45.4507 86.0249 48.1744C80.0153 51.2278 76.4094 53.6214 73.6622 59.8113C70.915 66.0013 70.8291 74.4193 71.1726 75.4924C71.5161 76.5652 70.1422 82.425 75.2934 85.6437C80.4446 88.7799 85.5958 86.7168 88.5147 93.6494C91.0902 99.8391 95.2113 99.0964 96.1555 98.8488V97.1158Z" fill="white"/>
</g>
<path d="M124.678 82.9257V20.8476H115.5V6.0957H149.33V20.8476H140.152V82.9257H124.678Z" fill="white"/>
<path d="M152.915 82.9257V6.0957H167.855V82.9257H152.915Z" fill="white"/>
<path d="M174.052 82.9257V6.0957H197.617L204.104 52.9588L210.573 6.0957H234.328V82.9257H220.199V27.5716L211.298 82.9257H197.445L187.991 27.5716V82.9257H174.052Z" fill="white"/>
<path d="M118.021 90.9023H138.982C144.615 90.9023 148.703 92.2745 151.248 95.0191C153.801 97.7637 155.077 102.237 155.077 108.433V111.829C155.077 119.171 152.438 123.558 147.159 124.986C150.402 125.822 152.68 127.761 153.991 130.801C155.31 133.846 155.975 137.868 155.975 142.877C155.975 151.042 154.741 157.23 152.283 161.437C149.833 165.635 145.399 167.732 138.982 167.732H118.021V90.9023ZM136.291 119.788C137.602 119.788 138.499 119.3 138.982 118.313C139.465 117.331 139.707 115.946 139.707 114.162V106.46C139.707 103.956 138.594 102.704 136.377 102.704H133.134V119.788H136.291ZM134.669 154.232C138.68 154.232 140.69 152.324 140.69 148.503V138.932C140.69 136.612 140.345 134.858 139.655 133.666C138.965 132.465 137.748 131.865 136.015 131.865H133.134V154.13L134.669 154.232Z" fill="white"/>
<path d="M161.094 167.732V90.9023H192.043V105.757H176.844V120.68H191.404V135.175H176.844V152.792H193.026V167.732H161.094Z" fill="white"/>
<path d="M198.157 90.9023H221.912C225.682 90.9023 228.606 91.7556 230.676 93.4581C232.746 95.1522 234.135 97.5364 234.851 100.611C235.575 103.677 235.938 107.601 235.938 112.378C235.938 116.727 235.368 120.123 234.23 122.568C233.091 125.016 231.112 126.714 228.295 127.662C230.629 128.142 232.319 129.309 233.367 131.161C234.424 133.005 234.954 135.501 234.954 138.657L234.765 167.732H219.652V137.68C219.652 135.531 219.23 134.159 218.393 133.563C217.552 132.971 216.021 132.671 213.804 132.671V167.732H198.157V90.9023ZM217.582 119.343C219.743 119.343 220.825 117.023 220.825 112.378C220.825 110.346 220.731 108.823 220.549 107.816C220.377 106.799 220.049 106.096 219.566 105.706C219.083 105.32 218.393 105.122 217.496 105.122H213.908V119.343H217.582Z" fill="white"/>
<path d="M238.99 167.732L246.46 90.9023H272.63L280.014 167.732H265.35L264.264 155.296H254.913L254.016 167.732H238.99ZM256.086 143.049H263.108L259.674 103.956H258.967L256.086 143.049Z" fill="white"/>
<path d="M105.082 170.769V2.92773" stroke="white" stroke-width="1.55262"/>
</g>
<defs>
<clipPath id="clip0_66_110">
<rect width="280" height="175" fill="white"/>
</clipPath>
</defs>
</svg>
