<svg width="90" height="56" viewBox="0 0 90 56" fill="none" xmlns="http://www.w3.org/2000/svg">
<g clip-path="url(#clip0_48_223)">
<mask id="mask0_48_223" style="mask-type:luminance" maskUnits="userSpaceOnUse" x="0" y="0" width="31" height="56">
<path d="M30.9069 0.626465H0V55.3749H30.9069V0.626465Z" fill="white"/>
</mask>
<g mask="url(#mask0_48_223)">
<path d="M30.7677 52.8669C30.2986 52.0218 27.9806 54.8741 24.2 54.1347C20.4194 53.3952 19.1224 50.9654 17.108 48.5621C13.2722 44.0195 6.15259 46.3172 3.03432 40.0316C-0.0839681 35.5947 3.03432 32.7688 2.75836 29.2826C2.45481 24.3175 4.38649 16.3945 6.59412 12.3273C11.5889 4.00806 12.3616 5.77754 17.7703 4.50986C20.1987 3.87601 26.1317 2.74037 28.5601 3.18934C28.8912 2.8196 26.3525 2.42345 26.3249 2.3178C27.07 1.55191 31.5404 2.68755 30.7126 0.759604C28.5325 0.28422 27.4011 1.15575 24.6967 1.57832C21.9923 2.00089 20.447 3.08371 18.2118 3.42704C16.0042 4.43062 12.1408 3.87601 10.3747 5.59268C4.16573 10.4257 1.15782 20.4616 1.40618 23.8421C1.65454 27.2227 0.605917 28.2526 0.799085 29.7316C0.992251 31.2105 1.59936 31.0257 0.495535 32.9273C-0.580686 34.8023 0.440345 34.8552 0.16439 37.4434C-0.111563 40.0316 2.39962 41.4842 2.92393 41.986C3.44825 42.4878 4.05535 42.9895 4.44168 43.6498C4.82802 44.31 6.29058 44.6006 6.7597 45.3136C7.22882 46.0267 7.80832 46.2908 9.62959 46.3172C11.4509 46.3436 13.9069 47.6113 14.514 48.0603C15.1211 48.5093 17.7979 52.8405 21.0541 54.5044C23.3722 55.2703 26.38 55.7985 28.4221 54.9797C30.133 53.9498 31.2368 53.7121 30.7677 52.8669Z" fill="black"/>
<path d="M28.863 42.6187C28.863 42.6187 29.4425 42.7508 30.022 42.5395C30.8774 42.2226 31.3465 41.4567 30.2979 41.7472C29.2769 42.0377 28.6975 42.249 28.863 42.6187Z" fill="black"/>
<path d="M21.3047 42.6189C21.3047 42.6189 23.6227 43.1207 26.3546 42.9359C29.0866 42.7246 25.1957 42.3813 25.1957 42.3813L21.6359 42.1964C21.6359 42.17 20.8356 42.302 21.3047 42.6189Z" fill="black"/>
<path d="M26.2704 47.7902C20.7865 48.3894 16.6014 42.0162 12.8493 39.3743C9.09716 36.9231 6.06662 33.9544 6.81705 30.9584C7.56748 27.9625 8.46222 5.98325 25.0582 7.45398C26.4724 7.69911 31.379 8.29829 30.8306 7.39951C26.559 7.56293 28.7237 4.83935 18.4198 7.29057C9.18382 9.49669 6.7016 24.6942 5.69141 33.2191C5.98003 38.8569 12.4452 38.3939 15.1295 42.8061C18.1889 46.4012 23.0089 48.7162 25.6354 48.9341C26.4147 48.7979 31.581 47.6812 30.8306 46.5919C30.1668 46.8097 27.5403 47.654 26.2704 47.7902Z" fill="black"/>
<path d="M19.415 11.631C20.6951 11.844 18.4509 12.1856 16.5176 14.6432C16.5176 14.6432 18.8755 11.3835 14.7457 17.2695C11.1866 22.3299 14.3605 29.1458 16.7211 32.3644C16.92 32.6218 16.9036 32.6993 16.9085 32.8083C16.9295 32.9746 16.983 33.1207 16.8265 33.0611C16.697 33.0071 16.1965 32.4438 15.922 32.1437C7.54072 23.1617 14.7259 13.9185 19.415 11.631Z" fill="black"/>
<path d="M19.7847 38.9211C19.6191 38.8418 19.4811 38.7098 19.3432 38.5777C18.7361 38.0759 17.9082 37.9439 17.1355 37.6797C16.2249 37.3628 15.3694 36.8082 14.7348 36.0687C14.6244 35.9367 14.514 35.8047 14.4036 35.6462C14.2104 35.4085 14.0448 35.1972 13.7964 35.0123C13.6585 34.9067 13.4101 34.7218 13.2169 34.7482C12.9686 34.7746 13.079 35.0123 13.1342 35.2236C13.2169 35.5405 13.4653 35.7518 13.7136 35.9895C13.9344 36.2008 14.1552 36.4385 14.4036 36.6498C15.397 37.6005 16.6112 38.3928 18.0186 38.6041C18.2118 38.6305 18.4325 38.6569 18.6257 38.7362C18.9568 38.8682 19.1776 39.1323 19.4259 39.37C19.6743 39.6077 20.033 39.7925 20.3642 39.6605C20.4745 39.6077 20.6125 39.5285 20.6125 39.3964" fill="black"/>
<path d="M30.7678 35.7788C29.802 36.4655 30.5746 35.9637 28.781 36.307C27.5116 36.6239 25.5523 35.9637 24.283 34.9865C23.0135 34.0093 22.7651 33.666 22.3236 32.5304C21.8821 31.3947 20.3092 30.444 19.4261 29.3611C17.9084 28.3839 18.4327 22.3888 18.7638 21.8342C19.7572 15.9183 24.7521 10.5306 30.7678 11.6927V11.1117C21.689 8.91959 16.6666 19.9063 17.4669 26.6937C18.2947 33.5075 21.4406 32.0021 22.296 34.0358C23.6758 36.5711 28.2291 38.0501 30.7678 36.4126V35.7788Z" fill="black"/>
<path d="M30.7696 16.8425C30.6592 16.8161 30.3833 16.7632 29.6658 16.8688C28.7552 16.9745 27.7893 18.0573 27.7893 18.0573C27.7893 18.0573 27.4857 18.4271 27.4857 18.9289C27.4857 19.4307 26.8511 20.6455 26.8787 20.8568C26.9063 21.0681 26.6303 22.1509 27.5961 22.5471C28.562 22.9696 29.4175 22.8111 29.9142 24.0261C30.2453 24.8712 30.5764 24.8712 30.7696 24.7919V16.8425Z" fill="black"/>
<path d="M30.907 31.077C30.6587 31.1562 29.7204 31.3939 29.2789 30.4167C28.7546 29.3075 27.7059 27.5644 26.0779 27.5379C24.4497 27.5116 23.539 26.5344 23.3735 25.029C23.2355 23.4972 23.4287 22.6257 23.539 21.9654C23.6494 21.3051 23.815 19.7998 24.6153 18.6642C25.4432 17.5285 26.0503 16.789 26.8229 16.4457C27.568 16.1023 28.6994 15.7063 28.865 15.5478C29.0306 15.4157 30.8518 15.4157 30.8518 15.4157L30.907 15.1252V14.8083C30.6311 14.7554 29.3617 14.5442 27.6507 15.4157C25.7191 16.3928 24.5601 17.1588 23.677 19.1396C22.794 21.1203 22.7664 23.8141 22.8768 24.1575C22.9872 24.5008 22.5456 26.3759 24.2013 27.4059C25.8571 28.4095 27.5128 27.7493 28.4511 29.9678C29.2789 31.9485 30.6035 31.7108 30.907 31.6315V31.077Z" fill="black"/>
</g>
<path d="M40.0749 26.5361V6.67117H37.125V1.95056H47.9989V6.67117H45.0489V26.5361H40.0749Z" fill="#743520"/>
<path d="M49.1514 26.5361V1.95056H53.9533V26.5361H49.1514Z" fill="#743520"/>
<path d="M55.9453 26.5361V1.95056H63.5199L65.6049 16.9467L67.6843 1.95056H75.3198V26.5361H70.7784V8.82284L67.9172 26.5361H63.4645L60.4258 8.82284V26.5361H55.9453Z" fill="#743520"/>
<path d="M37.9355 29.0887H44.6729C46.4833 29.0887 47.7975 29.5278 48.6154 30.4061C49.4361 31.2844 49.8464 32.7157 49.8464 34.6986V35.7854C49.8464 38.1348 48.998 39.5386 47.3012 39.9955C48.3437 40.2631 49.0757 40.8834 49.497 41.8563C49.9212 42.8306 50.1347 44.1178 50.1347 45.7207C50.1347 48.3334 49.7382 50.3136 48.9481 51.6598C48.1607 53.0033 46.7356 53.6743 44.6729 53.6743H37.9355V29.0887ZM43.8078 38.3323C44.2292 38.3323 44.5175 38.1759 44.6729 37.8603C44.8281 37.546 44.9057 37.1028 44.9057 36.5319V34.0673C44.9057 33.2659 44.5481 32.8653 43.8355 32.8653H42.7931V38.3323H43.8078ZM43.2866 49.3544C44.5758 49.3544 45.2218 48.7437 45.2218 47.5211V44.4581C45.2218 43.7158 45.1109 43.1545 44.8891 42.773C44.6673 42.3887 44.2763 42.1966 43.7191 42.1966H42.7931V49.3215L43.2866 49.3544Z" fill="#838286"/>
<path d="M51.7803 53.6743V29.0887H61.7281V33.8423H56.8429V38.6177H61.523V43.2561H56.8429V48.8933H62.0442V53.6743H51.7803Z" fill="#838286"/>
<path d="M63.6934 29.0887H71.329C72.5405 29.0887 73.4804 29.3618 74.1459 29.9066C74.8113 30.4487 75.2576 31.2117 75.4877 32.1956C75.7206 33.1767 75.8371 34.4323 75.8371 35.9611C75.8371 37.3526 75.6541 38.4394 75.2881 39.2216C74.9222 40.0052 74.2858 40.5486 73.3806 40.8518C74.1306 41.0055 74.674 41.3788 75.0109 41.9716C75.3505 42.5617 75.521 43.3603 75.521 44.3703L75.46 53.6743H70.6025V44.0575C70.6025 43.3699 70.4667 42.9308 70.1977 42.7401C69.9274 42.5507 69.4353 42.4547 68.7227 42.4547V53.6743H63.6934V29.0887ZM69.9371 38.1896C70.6317 38.1896 70.9796 37.4473 70.9796 35.9611C70.9796 35.3106 70.9491 34.8235 70.8909 34.501C70.8354 34.1758 70.7301 33.9507 70.5748 33.8258C70.4195 33.7023 70.1977 33.6392 69.9094 33.6392H68.756V38.1896H69.9371Z" fill="#838286"/>
<path d="M76.8184 53.6743L79.2194 29.0887H87.6311L90.0046 53.6743H85.2912L84.9419 49.6947H81.9364L81.6481 53.6743H76.8184ZM82.3135 45.7756H84.5704L83.4669 33.2659H83.2396L82.3135 45.7756Z" fill="#838286"/>
<path d="M33.7764 54.6461V0.93689" stroke="#292425" stroke-width="1.55262"/>
</g>
<defs>
<clipPath id="clip0_48_223">
<rect width="90" height="56" fill="white"/>
</clipPath>
</defs>
</svg>
