<svg width="110" height="488" viewBox="0 0 110 488" fill="none" xmlns="http://www.w3.org/2000/svg">
<path d="M109.997 471.005L18.399 471.005L18.399 487.512L0.404059 487.512L0.404057 430.28L18.399 430.28L18.399 446.651L109.997 446.651L109.997 471.005ZM109.997 420.496L0.404056 420.496L0.404055 396.277L109.997 396.277L109.997 420.496ZM109.997 380.341L0.404055 378.447L0.404053 352.47L64.1304 340.428L0.404052 327.439L0.404051 302.409L109.997 300.514L109.997 317.698L37.0704 319.727L109.997 332.445L109.997 347.734L36.5292 361.264L109.997 362.888L109.997 380.341ZM109.997 284.671L0.404051 284.671L0.404049 256.122C0.404049 251.432 0.76485 247.012 1.48645 242.863C2.20805 238.623 3.60615 234.88 5.68075 231.633C7.66515 228.386 10.5516 225.86 14.34 224.056C18.0382 222.162 22.9541 221.215 29.0877 221.215C33.5075 221.215 37.2508 221.891 40.3176 223.244C43.2942 224.507 45.6845 226.356 47.4885 228.792C49.2925 231.137 50.5102 233.978 51.1416 237.316C51.6828 233.076 53.0809 229.513 55.3359 226.627C57.5007 223.74 60.4322 221.576 64.1304 220.132C67.8286 218.599 72.2935 217.832 77.5251 217.832C83.2077 217.832 88.1236 218.599 92.2728 220.132C96.3318 221.576 99.6692 223.695 102.285 226.492C104.901 229.288 106.84 232.76 108.103 236.91C109.366 240.969 109.997 245.659 109.997 250.981L109.997 284.671ZM93.0846 260.452L93.0846 255.31C93.0846 249.989 91.7316 246.336 89.0256 244.351C86.3196 242.277 82.3508 241.239 77.1192 241.239C72.97 241.239 69.6777 241.69 67.2423 242.592C64.8069 243.494 63.048 244.983 61.9656 247.057C60.793 249.132 60.2067 251.928 60.2067 255.446L60.2067 260.452L93.0846 260.452ZM44.2413 260.452L44.2413 255.716C44.2413 252.018 43.7001 249.222 42.6177 247.328C41.4451 245.434 39.7764 244.171 37.6116 243.539C35.4468 242.818 32.831 242.457 29.7642 242.457C26.8778 242.457 24.4875 242.998 22.5933 244.081C20.6089 245.073 19.1206 246.606 18.1284 248.681C17.1362 250.665 16.6401 253.191 16.6401 256.258L16.6401 260.452L44.2413 260.452ZM109.997 205.129L0.404047 205.129L0.404045 155.88L16.9107 155.88L16.9107 180.91L44.106 180.91L44.106 161.833L60.8832 161.833L60.8832 180.91L93.6258 180.91L93.6258 155.609L109.997 155.609L109.997 205.129ZM109.997 144.614L0.404044 144.614L0.404043 114.442C0.404043 107.046 1.21584 100.641 2.83944 95.2294C4.46304 89.8174 7.39454 85.6231 11.6339 82.6465C15.7831 79.5797 21.6912 78.0463 29.3582 78.0463C33.8682 78.0463 37.8821 78.4071 41.3999 79.1287C44.9177 79.8503 47.9845 81.2033 50.6003 83.1877C53.1259 85.0819 55.2456 87.833 56.9594 91.441L109.997 76.4227L109.997 101.453L60.8832 113.495L60.8832 120.395L109.997 120.395L109.997 144.614ZM46.9473 120.395L46.9472 113.63C46.9472 110.203 46.3609 107.542 45.1883 105.648C43.9255 103.753 42.1666 102.445 39.9117 101.724C37.5664 100.912 34.7702 100.506 31.523 100.506C26.8326 100.506 23.1795 101.363 20.5637 103.077C17.9479 104.791 16.64 107.948 16.64 112.548L16.64 120.395L46.9473 120.395ZM109.997 68.7635L0.40404 48.0626L0.404039 20.4614L109.997 0.031054L109.997 22.3556L86.8607 26.0087L86.8607 42.1094L109.997 45.8978L109.997 68.7635ZM72.3836 39.9446L72.3836 28.3088L29.6288 34.1267L72.3836 39.9446Z" fill="white"/>
</svg>
